<svg xmlns="http://www.w3.org/2000/svg" viewBox="0 0 447 421.2"><defs><style>.cls-1{fill:#fafafa;stroke:#fafafa;stroke-miterlimit:10;}</style></defs><title>Asset 1</title><g id="Layer_2" data-name="Layer 2"><g id="Layer_1-2" data-name="Layer 1"><path class="cls-1" d="M439.5,69.16h-22V48a21.5,21.5,0,0,0-43,0V69.16H267.17V56.5H289.5a7,7,0,0,0,7-7V7.5a7,7,0,0,0-7-7h-132a7,7,0,0,0-7,7v42a7,7,0,0,0,7,7h22.33V69.16H72.5V48a21.5,21.5,0,0,0-43,0V69.16H7.5a7,7,0,0,0-7,7V113.5a7,7,0,0,0,7,7h22V413.7a7,7,0,0,0,7,7h374a7,7,0,0,0,7-7V120.5h22a7,7,0,0,0,7-7V76.16A7,7,0,0,0,439.5,69.16ZM388.5,48a7.5,7.5,0,0,1,15,0V69.16h-15Zm-224-33.5h118v28h-118Zm29.33,42h59.34V69.16H193.83ZM43.5,48a7.5,7.5,0,0,1,15,0V69.16h-15Zm360,358.7H43.5v-246h360Zm0-260H43.5V120.5h360Zm29-40.2H14.5V83.16h418Z"/><path class="cls-1" d="M171,303.65H216.5V365a7,7,0,0,0,13.12,3.41l52.54-94.28a7,7,0,0,0-6.11-10.4H230.5v-61.4A7,7,0,0,0,217.38,199l-52.54,94.28a7,7,0,0,0,6.11,10.4Zm45.55-74.34v41.45a7,7,0,0,0,7,7h40.63L230.5,338.1V296.65a7,7,0,0,0-7-7H182.87Z"/><path class="cls-1" d="M68.83,214H82.5V227.7a7,7,0,0,0,14,0V214h13.67a7,7,0,0,0,0-14H96.5V186.37a7,7,0,0,0-14,0V200H68.83a7,7,0,0,0,0,14Z"/><path class="cls-1" d="M336.83,214h41.33a7,7,0,0,0,0-14H336.83a7,7,0,0,0,0,14Z"/></g></g></svg>