<svg xmlns="http://www.w3.org/2000/svg" viewBox="0 0 376.03 496"><defs><style>.cls-1{fill:#fafafa;}</style></defs><title>charging</title><g id="Layer_2" data-name="Layer 2"><g id="Layer_1-2" data-name="Layer 1"><g id="Charge_energy" data-name="Charge energy"><path class="cls-1" d="M64,456H32a8,8,0,0,0,0,16H64a8,8,0,0,0,0-16Z"/><path class="cls-1" d="M96,456H88a8,8,0,0,0,0,16h8a8,8,0,0,0,0-16Z"/><path class="cls-1" d="M136,296H56a8,8,0,0,0-8,8v48a8,8,0,0,0,8,8h80a8,8,0,0,0,8-8V304A8,8,0,0,0,136,296Zm-8,48H64V312h64Z"/><path class="cls-1" d="M136,224H56a8,8,0,0,0-8,8v48a8,8,0,0,0,8,8h80a8,8,0,0,0,8-8V232A8,8,0,0,0,136,224Zm-8,48H64V240h64Z"/><path class="cls-1" d="M136,368H56a8,8,0,0,0-8,8v48a8,8,0,0,0,8,8h80a8,8,0,0,0,8-8V376A8,8,0,0,0,136,368Zm-8,48H64V384h64Z"/><path class="cls-1" d="M375.2,100.42A8,8,0,0,0,368,96H328V8a8,8,0,0,0-14.4-4.8l-72,96A8,8,0,0,0,248,112h40v88a8,8,0,0,0,14.4,4.8l72-96a8,8,0,0,0,.8-8.38ZM304,176V104a8,8,0,0,0-8-8H264l48-64v72a8,8,0,0,0,8,8h32Z"/><path class="cls-1" d="M312,256a8,8,0,0,0-8,8v56H288V288a8,8,0,0,0-8-8H256a8,8,0,0,0-8,8v72h-8V328a8,8,0,0,0-8-8H192V184a24,24,0,0,0-24-24H24A24,24,0,0,0,0,184V472a24,24,0,0,0,24,24H168a24,24,0,0,0,24-24V336h32v32a8,8,0,0,0,8,8h24a8,8,0,0,0,8-8V296h8v32a8,8,0,0,0,8,8h32a8,8,0,0,0,8-8V264A8,8,0,0,0,312,256ZM124.9,176l-2.67,8H69.77l-2.67-8ZM176,472a8,8,0,0,1-8,8H24a8,8,0,0,1-8-8V184a8,8,0,0,1,8-8H50.23l6.18,18.53A8,8,0,0,0,64,200h64a8,8,0,0,0,7.59-5.47L141.77,176H168a8,8,0,0,1,8,8Z"/><path class="cls-1" d="M312,216a8,8,0,0,0-8,8v16a8,8,0,0,0,16,0V224A8,8,0,0,0,312,216Z"/></g></g></g></svg>