<?xml version="1.0" encoding="UTF-8" standalone="no"?>
<svg
   xmlns:dc="http://purl.org/dc/elements/1.1/"
   xmlns:cc="http://creativecommons.org/ns#"
   xmlns:rdf="http://www.w3.org/1999/02/22-rdf-syntax-ns#"
   xmlns:svg="http://www.w3.org/2000/svg"
   xmlns="http://www.w3.org/2000/svg"
   xmlns:sodipodi="http://sodipodi.sourceforge.net/DTD/sodipodi-0.dtd"
   xmlns:inkscape="http://www.inkscape.org/namespaces/inkscape"
   id="Layer_1"
   data-name="Layer 1"
   viewBox="0 0 368 448"
   version="1.1"
   sodipodi:docname="databaseYellow.svg"
   inkscape:version="0.92.4 (f8dce91, 2019-08-02)">
  <metadata
     id="metadata3809">
    <rdf:RDF>
      <cc:Work
         rdf:about="">
        <dc:format>image/svg+xml</dc:format>
        <dc:type
           rdf:resource="http://purl.org/dc/dcmitype/StillImage" />
        <dc:title>databaseYellow</dc:title>
      </cc:Work>
    </rdf:RDF>
  </metadata>
  <defs
     id="defs3807" />
  <sodipodi:namedview
     pagecolor="#ffffff"
     bordercolor="#666666"
     borderopacity="1"
     objecttolerance="10"
     gridtolerance="10"
     guidetolerance="10"
     inkscape:pageopacity="0"
     inkscape:pageshadow="2"
     inkscape:window-width="1299"
     inkscape:window-height="713"
     id="namedview3805"
     showgrid="false"
     inkscape:zoom="1.1875"
     inkscape:cx="184"
     inkscape:cy="224"
     inkscape:window-x="67"
     inkscape:window-y="27"
     inkscape:window-maximized="1"
     inkscape:current-layer="Layer_1-2" />
  <title
     id="title3792">databaseYellow</title>
  <g
     id="Layer_1-2"
     data-name="Layer 1-2">
    <g
       id="Database-3">
      <path
         d="M184,208c-58.4,0-147.84-3.84-184-25.52V280c0,16.32,71.68,40,184,40s184-23.68,184-40V182.48C331.84,204.16,242.4,208,184,208ZM71.84,263a8.7,8.7,0,0,1-1.44-.16c-11.68-2.08-22.56-4.56-32.32-7.28a8,8,0,0,1-5.6-9.83h0a8.12,8.12,0,0,1,9.92-5.6c9.28,2.64,19.6,5,30.8,7A8,8,0,0,1,71.84,263Zm193.28,4.64A730.37,730.37,0,0,1,184,272a713.44,713.44,0,0,1-81.36-4.48,8,8,0,0,1,.54-16,7.1,7.1,0,0,1,1.3.15A699.48,699.48,0,0,0,184,256a695.27,695.27,0,0,0,79.28-4.32,7.91,7.91,0,0,1,8.86,6.83h0v.2a8.06,8.06,0,0,1-7,8.88Z"
         style="fill:#cfd31a"
         id="path3794" />
      <path
         d="M184,80C125.6,80,36.16,76.16,0,54.48V160c0,13.28,57.12,32,184,32s184-18.72,184-32V54.48C331.84,76.16,242.4,80,184,80ZM71.84,135a8.7,8.7,0,0,1-1.44-.16c-11.68-2.08-22.56-4.56-32.32-7.28a8,8,0,0,1-5.6-9.83h0a8.12,8.12,0,0,1,9.92-5.6c9.28,2.64,19.6,5,30.8,7A8,8,0,0,1,71.84,135Zm193.28,4.64A730.37,730.37,0,0,1,184,144a713.44,713.44,0,0,1-81.36-4.48,8,8,0,1,1,.54-16,7.1,7.1,0,0,1,1.3.15A699.48,699.48,0,0,0,184,128a695.27,695.27,0,0,0,79.28-4.32,8,8,0,0,1,8.88,7h0a8.06,8.06,0,0,1-7,8.92Z"
         style="fill:#cfd31a"
         id="path3796" />
      <path
         d="M184,336c-75.52,0-151.76-11.12-184-32.64V408c0,16.32,71.68,40,184,40s184-23.68,184-40V303.36C335.76,324.88,259.52,336,184,336ZM71.84,391a8.7,8.7,0,0,1-1.44-.16c-11.68-2.08-22.56-4.56-32.32-7.28a8,8,0,0,1-5.6-9.83h0a8.12,8.12,0,0,1,9.92-5.6c9.28,2.64,19.6,5,30.8,7A8,8,0,0,1,71.84,391Zm193.28,4.64A730.37,730.37,0,0,1,184,400a713.44,713.44,0,0,1-81.36-4.48,8,8,0,0,1,.54-16,7.1,7.1,0,0,1,1.3.15A699.48,699.48,0,0,0,184,384a695.27,695.27,0,0,0,79.28-4.32,7.91,7.91,0,0,1,8.86,6.83h0v.2a8.06,8.06,0,0,1-7,8.88Z"
         style="fill:#cfd31a"
         id="path3798" />
      <path
         d="M0,24.61V32C0,45.29,57.09,64,184,64S368,45.29,368,32V24.61C362.07,16.12,301.43,0,184,0S5.93,16.12,0,24.61Z"
         style="fill:#cfd31a"
         id="path3800" />
    </g>
    <path
       style="fill:#d4aa00;stroke-width:0.84210527"
       d="M 142.4,446.55347 C 81.066913,443.06936 28.156189,431.51666 6.9679949,416.98279 -0.37941457,411.9429 0.09091916,416.06444 0.0873584,356.68772 0.08562703,327.81754 0.36842105,304.3424 0.71578947,304.52073 18.01558,313.40198 32.741291,318.8258 51.452632,323.20828 c 79.908838,18.7159 208.208418,17.00304 279.097338,-3.72607 13.30629,-3.89098 22.33547,-7.37451 30.58687,-11.80067 l 6.10527,-3.27494 v 53.33973 53.33974 l -3.37933,3.37933 c -12.76835,12.76834 -58.11494,24.88694 -112.41015,30.0409 -31.00114,2.94279 -77.81603,3.82161 -109.05263,2.04717 z m 93.47368,-47.89035 c 6.71579,-0.51498 16.73974,-1.44206 22.27545,-2.06018 9.17581,-1.02457 10.23586,-1.32258 12,-3.37351 1.37815,-1.6022 1.93508,-3.30524 1.93508,-5.91732 0,-3.06171 -0.42806,-4.02785 -2.59093,-5.84778 -3.03359,-2.5526 -2.6068,-2.5314 -18.88275,-0.93787 -41.58253,4.07123 -89.06474,4.05149 -134.17957,-0.0558 -16.3936,-1.49248 -18.610345,-1.14801 -20.882042,3.24497 -1.657987,3.20619 -0.93456,7.3168 1.727857,9.81802 1.440808,1.35357 3.639905,2.08864 7.776585,2.59937 6.38037,0.78778 37.54853,3.20772 47.4519,3.68426 12.23385,0.58867 71.30501,-0.22913 83.36842,-1.15419 z M 76.991964,389.35299 c 2.549473,-2.00542 3.724217,-6.74877 2.394296,-9.66763 -1.424353,-3.12612 -4.206337,-4.44741 -13.23427,-6.28559 -4.610963,-0.93884 -12.272955,-2.69132 -17.026649,-3.89441 -9.443729,-2.39006 -11.83417,-2.24151 -15.008391,0.93271 -3.637617,3.63762 -2.260647,10.44645 2.598839,12.85072 1.506379,0.74529 17.407584,4.6982 27.368422,6.80357 6.49457,1.37272 10.515466,1.14239 12.907753,-0.73937 z"
       id="path3813"
       inkscape:connector-curvature="0" />
    <path
       style="fill:#d4aa00;stroke-width:0.84210527"
       d="M 142.4,318.55347 C 81.066913,315.06936 28.156189,303.51666 6.9679949,288.98279 c -7.31918404,-5.02053 -6.87707566,-1.3665 -6.8806365,-56.8686 l -0.0031479,-49.06475 5.222114,2.63611 c 30.4229645,15.35747 103.7559155,23.75699 195.1989355,22.35799 77.33402,-1.18315 128.11313,-7.74023 157.47369,-20.33452 3.93684,-1.68871 7.63158,-3.27357 8.21052,-3.52191 0.83531,-0.3583 1.05264,9.80413 1.05264,49.22372 v 49.67524 l -3.37933,3.37933 c -12.76835,12.76834 -58.11494,24.88694 -112.41015,30.0409 -31.00114,2.94279 -77.81603,3.82161 -109.05263,2.04717 z m 93.47368,-47.89035 c 6.71579,-0.51498 16.73974,-1.44206 22.27545,-2.06018 9.17581,-1.02457 10.23586,-1.32258 12,-3.37351 1.37815,-1.60219 1.93508,-3.30524 1.93508,-5.91732 0,-3.06171 -0.42806,-4.02785 -2.59093,-5.84778 -3.03359,-2.5526 -2.6068,-2.5314 -18.88275,-0.93787 -41.58253,4.07123 -89.06474,4.05149 -134.17957,-0.0558 -16.3936,-1.49248 -18.610345,-1.14801 -20.882042,3.24497 -1.657987,3.20619 -0.93456,7.31681 1.727857,9.81803 1.440808,1.35356 3.639905,2.08863 7.776585,2.59936 6.38037,0.78778 37.54853,3.20772 47.4519,3.68426 12.23385,0.58867 71.30501,-0.22913 83.36842,-1.15419 z M 76.991964,261.35298 c 2.549473,-2.00541 3.724217,-6.74876 2.394296,-9.66762 -1.424353,-3.12612 -4.206337,-4.44741 -13.23427,-6.28559 -4.610963,-0.93884 -12.272955,-2.69132 -17.026649,-3.89441 -9.443729,-2.39006 -11.83417,-2.24151 -15.008391,0.93271 -3.637617,3.63762 -2.260647,10.44645 2.598839,12.85072 1.506379,0.74529 17.407584,4.6982 27.368422,6.80357 6.49457,1.37272 10.515466,1.1424 12.907753,-0.73938 z"
       id="path3815"
       inkscape:connector-curvature="0" />
    <path
       style="fill:#d4aa00;stroke-width:0.84210527"
       d="M 141.97895,190.96477 C 73.7178,187.92184 24.777135,179.50694 6.7666365,167.71624 -0.37897869,163.03831 0.08421053,167.1932 0.08421053,107.77374 V 55.04944 L 5.3063245,57.685554 C 35.729289,73.043018 109.06224,81.442536 200.50526,80.043538 c 77.33402,-1.183143 128.11313,-7.74023 157.47369,-20.334514 3.93684,-1.688718 7.63158,-3.273579 8.21052,-3.521912 0.83579,-0.3585 1.05264,10.548799 1.05264,52.947068 v 53.39859 l -2.73685,2.60436 c -11.97406,11.39443 -54.29844,20.41757 -116,24.73007 -12.61859,0.88195 -92.82515,1.70835 -106.52631,1.09757 z m 77.89473,-47.47527 c 22.2808,-1.12786 45.43877,-3.29255 48,-4.48681 1.1579,-0.53989 2.7857,-2.37352 3.61733,-4.07471 1.36683,-2.79595 1.39381,-3.37613 0.28087,-6.03976 -2.40216,-5.74919 -3.56409,-5.99917 -20.53882,-4.4187 -44.59007,4.15165 -89.20834,4.15203 -134.8021,10e-4 -16.3936,-1.49248 -18.610345,-1.14801 -20.882042,3.24497 -1.657987,3.20619 -0.93456,7.31681 1.727857,9.81803 1.440808,1.35357 3.639905,2.08863 7.776585,2.59937 7.00273,0.86461 38.70502,3.28627 47.4519,3.62475 16.19919,0.62684 52.54436,0.4821 67.36842,-0.2683 z M 76.991964,133.35298 c 2.549473,-2.00541 3.724217,-6.74876 2.394296,-9.66762 -1.424353,-3.12612 -4.206337,-4.44741 -13.23427,-6.28559 -4.610963,-0.93884 -12.272955,-2.69132 -17.026649,-3.89441 -9.443729,-2.39006 -11.83417,-2.24151 -15.008391,0.93271 -3.637617,3.63762 -2.260647,10.44645 2.598839,12.85072 1.506379,0.74529 17.407584,4.6982 27.368422,6.80357 6.49457,1.37272 10.515466,1.1424 12.907753,-0.73938 z"
       id="path3817"
       inkscape:connector-curvature="0" />
    <path
       style="fill:#d4aa00;stroke-width:0.84210527"
       d="M 141.97895,62.964776 C 112.7826,61.663266 78.711476,58.55464 59.96149,55.481559 28.073101,50.255123 5.9541169,42.434994 1.4386431,34.790906 -0.42275411,31.639811 -0.33990114,25.402742 1.5865142,23.65936 8.1770105,17.695043 41.291441,9.8659596 77.136842,5.7973644 132.3116,-0.46518934 211.12877,-1.301887 270.4,3.7457452 c 43.87197,3.7362071 83.87407,11.7118898 94.867,18.9147318 1.72506,1.130302 1.97511,1.963729 1.97511,6.583216 0,4.871535 -0.21606,5.494678 -2.73685,7.893438 -11.97406,11.394428 -54.29844,20.417575 -116,24.730071 -12.61859,0.881949 -92.82515,1.708342 -106.52631,1.097574 z"
       id="path3819"
       inkscape:connector-curvature="0" />
  </g>
</svg>
