<?xml version="1.0" encoding="UTF-8" standalone="no"?>
<svg
   xmlns:dc="http://purl.org/dc/elements/1.1/"
   xmlns:cc="http://creativecommons.org/ns#"
   xmlns:rdf="http://www.w3.org/1999/02/22-rdf-syntax-ns#"
   xmlns:svg="http://www.w3.org/2000/svg"
   xmlns="http://www.w3.org/2000/svg"
   xmlns:sodipodi="http://sodipodi.sourceforge.net/DTD/sodipodi-0.dtd"
   xmlns:inkscape="http://www.inkscape.org/namespaces/inkscape"
   id="Layer_1"
   data-name="Layer 1"
   viewBox="0 0 368 448"
   version="1.1"
   sodipodi:docname="databaseRed.svg"
   inkscape:version="0.92.4 (f8dce91, 2019-08-02)">
  <metadata
     id="metadata4001">
    <rdf:RDF>
      <cc:Work
         rdf:about="">
        <dc:format>image/svg+xml</dc:format>
        <dc:type
           rdf:resource="http://purl.org/dc/dcmitype/StillImage" />
        <dc:title>databaseRed</dc:title>
      </cc:Work>
    </rdf:RDF>
  </metadata>
  <defs
     id="defs3999" />
  <sodipodi:namedview
     pagecolor="#ffffff"
     bordercolor="#666666"
     borderopacity="1"
     objecttolerance="10"
     gridtolerance="10"
     guidetolerance="10"
     inkscape:pageopacity="0"
     inkscape:pageshadow="2"
     inkscape:window-width="1299"
     inkscape:window-height="713"
     id="namedview3997"
     showgrid="false"
     inkscape:zoom="0.52678571"
     inkscape:cx="184"
     inkscape:cy="224"
     inkscape:window-x="67"
     inkscape:window-y="27"
     inkscape:window-maximized="1"
     inkscape:current-layer="Layer_1" />
  <title
     id="title3984">databaseRed</title>
  <g
     id="Layer_1-2"
     data-name="Layer 1-2">
    <g
       id="Database-3">
      <path
         d="M184,208c-58.4,0-147.84-3.84-184-25.52V280c0,16.32,71.68,40,184,40s184-23.68,184-40V182.48C331.84,204.16,242.4,208,184,208ZM71.84,263a8.7,8.7,0,0,1-1.44-.16c-11.68-2.08-22.56-4.56-32.32-7.28a8,8,0,0,1-5.6-9.83h0a8.12,8.12,0,0,1,9.92-5.6c9.28,2.64,19.6,5,30.8,7A8,8,0,0,1,71.84,263Zm193.28,4.64A730.37,730.37,0,0,1,184,272a713.44,713.44,0,0,1-81.36-4.48,8,8,0,0,1,.54-16,7.1,7.1,0,0,1,1.3.15A699.48,699.48,0,0,0,184,256a695.27,695.27,0,0,0,79.28-4.32,7.91,7.91,0,0,1,8.86,6.83h0v.2a8.06,8.06,0,0,1-7,8.88Z"
         style="fill:#d31e1e"
         id="path3986" />
      <path
         d="M184,80C125.6,80,36.16,76.16,0,54.48V160c0,13.28,57.12,32,184,32s184-18.72,184-32V54.48C331.84,76.16,242.4,80,184,80ZM71.84,135a8.7,8.7,0,0,1-1.44-.16c-11.68-2.08-22.56-4.56-32.32-7.28a8,8,0,0,1-5.6-9.83h0a8.12,8.12,0,0,1,9.92-5.6c9.28,2.64,19.6,5,30.8,7A8,8,0,0,1,71.84,135Zm193.28,4.64A730.37,730.37,0,0,1,184,144a713.44,713.44,0,0,1-81.36-4.48,8,8,0,1,1,.54-16,7.1,7.1,0,0,1,1.3.15A699.48,699.48,0,0,0,184,128a695.27,695.27,0,0,0,79.28-4.32,8,8,0,0,1,8.88,7h0a8.06,8.06,0,0,1-7,8.92Z"
         style="fill:#d31e1e"
         id="path3988" />
      <path
         d="M184,336c-75.52,0-151.76-11.12-184-32.64V408c0,16.32,71.68,40,184,40s184-23.68,184-40V303.36C335.76,324.88,259.52,336,184,336ZM71.84,391a8.7,8.7,0,0,1-1.44-.16c-11.68-2.08-22.56-4.56-32.32-7.28a8,8,0,0,1-5.6-9.83h0a8.12,8.12,0,0,1,9.92-5.6c9.28,2.64,19.6,5,30.8,7A8,8,0,0,1,71.84,391Zm193.28,4.64A730.37,730.37,0,0,1,184,400a713.44,713.44,0,0,1-81.36-4.48,8,8,0,0,1,.54-16,7.1,7.1,0,0,1,1.3.15A699.48,699.48,0,0,0,184,384a695.27,695.27,0,0,0,79.28-4.32,7.91,7.91,0,0,1,8.86,6.83h0v.2a8.06,8.06,0,0,1-7,8.88Z"
         style="fill:#d31e1e"
         id="path3990" />
      <path
         d="M0,24.61V32C0,45.29,57.09,64,184,64S368,45.29,368,32V24.61C362.07,16.12,301.43,0,184,0S5.93,16.12,0,24.61Z"
         style="fill:#d31e1e"
         id="path3992" />
    </g>
  </g>
  <path
     style="fill:#ff2a2a;stroke-width:1.89830506"
     d="M 123.44407,444.68012 C 69.19242,439.9388 18.559433,427.00126 5.0695578,414.43354 c -3.9660814,-3.69497 -4.066168,-5.07636 -4.066168,-56.12076 0,-41.1578 0.506689,-52.1094 2.3728814,-51.28757 36.5601978,16.10023 70.9502518,23.5397 128.6101688,27.82173 87.78718,6.5194 193.76215,-5.78189 229.22034,-26.60728 l 6.16949,-3.62348 v 52.75762 c 0,52.28657 -0.0381,52.79256 -4.27119,56.6709 -14.9523,13.69939 -62.73093,25.77785 -121.9661,30.83309 -26.71606,2.27999 -90.5718,2.17275 -117.69491,-0.19767 z m 106.7158,-45.4233 c 36.41598,-2.20583 42.30115,-3.8989 42.30115,-12.16938 0,-7.42644 -5.00832,-8.71815 -25.91809,-6.68461 -24.22344,2.3558 -100.62686,2.34161 -124.95163,-0.0232 -21.750763,-2.11458 -25.219605,-1.47618 -26.829375,4.93766 -2.44443,9.73939 2.950545,11.52286 42.371295,14.0071 34.48751,2.17337 56.29281,2.15753 93.02665,-0.0676 z M 77.749152,388.82712 c 3.634719,-3.63472 3.858889,-9.11333 0.487388,-11.91143 -1.372617,-1.13917 -11.184056,-3.92127 -21.8032,-6.18246 -21.004087,-4.47249 -25.057069,-3.67322 -25.057069,4.94135 0,6.10897 3.126167,8.00279 20.087151,12.1687 18.699152,4.59284 22.533225,4.73634 26.28573,0.98384 z"
     id="path4003"
     inkscape:connector-curvature="0" />
  <path
     style="fill:#ff2a2a;stroke-width:1.89830506"
     d="M 137.32639,317.80189 C 78.422122,313.91229 25.06867,301.76905 7.2844664,288.20438 l -6.2810766,-4.79082 v -49.46242 c 0,-46.39897 0.2057497,-49.37179 3.3220339,-47.99913 35.3111963,15.55385 90.8467213,22.34953 181.7627163,22.24166 89.18364,-0.10583 140.1533,-6.49693 177.9661,-22.31524 3.11267,-1.30212 3.32203,1.62191 3.32203,46.39581 0,29.38275 -0.75858,49.20295 -1.96978,51.46609 -6.36241,11.88829 -58.30397,26.85722 -111.24834,32.06043 -28.29993,2.78123 -89.21665,3.82463 -116.83176,2.00113 z m 108.54693,-47.64168 c 12.00049,-1.12407 22.89202,-2.93422 24.20339,-4.02256 3.26835,-2.71249 2.99943,-10.03007 -0.47456,-12.91322 -2.26361,-1.87863 -8.88416,-1.92421 -31.79661,-0.21889 -36.79675,2.73869 -72.38701,2.73469 -109.29372,-0.0123 -25.65881,-1.90979 -29.44968,-1.81811 -32.042726,0.77494 -4.040322,4.04032 -1.766652,12.37626 3.753586,13.76175 17.58217,4.41284 108.99598,6.06366 145.65064,2.63026 z M 80.358649,255.62585 c 0.952798,-6.31839 -3.826615,-8.94351 -23.228295,-12.75828 -19.61919,-3.85755 -24.341448,-3.12632 -25.29038,3.91613 -0.893859,6.63374 2.866594,8.92447 21.664766,13.19739 20.21148,4.59418 25.637052,3.71424 26.853909,-4.35524 z"
     id="path4005"
     inkscape:connector-curvature="0" />
  <path
     style="fill:#ff8080;stroke-width:1.89830506"
     d="M 118.69831,189.45357 C 72.381685,185.64508 46.565242,181.53758 23.856253,174.36382 -0.45591664,166.68361 1.0033898,170.86773 1.0033898,108.84001 V 55.712672 l 5.5170411,2.852973 C 32.876232,72.19476 99.826125,80.446466 184.18983,80.46375 c 83.6808,0.01708 151.4512,-8.340151 177.69907,-21.913449 l 5.54671,-2.868317 -0.50424,53.616616 -0.50425,53.61662 -6.4788,4.36504 c -11.72507,7.89968 -37.64055,14.2612 -79.89408,19.61178 -15.52897,1.96643 -143.82407,4.00312 -161.35593,2.56153 z m 116.9257,-46.51101 c 16.60612,-1.14836 31.68785,-2.88689 33.51497,-3.86339 2.00385,-1.07096 3.32204,-3.98219 3.32204,-7.3368 0,-6.64296 -5.41661,-10.26338 -12.9249,-8.6389 -20.00745,4.32875 -125.93382,4.34244 -152.44348,0.0197 -11.594319,-1.8906 -17.9942,9.10692 -8.801115,15.12379 8.691695,5.68871 85.162325,8.30336 137.332485,4.69562 z M 78.962408,131.50225 c 1.467543,-2.74213 1.56569,-5.34196 0.306031,-8.10661 -1.484055,-3.25715 -5.639788,-4.92357 -20.810406,-8.34485 -10.425824,-2.35122 -20.364586,-3.73445 -22.086137,-3.07383 -4.337676,1.66453 -6.136041,9.94729 -2.868859,13.21317 2.807525,2.8064 29.620073,9.98404 38.145427,10.21141 3.405465,0.0908 5.886356,-1.23182 7.313944,-3.89929 z"
     id="path4007"
     inkscape:connector-curvature="0" />
  <path
     style="fill:#ff8080;stroke-width:1.89830506"
     d="M 148.12203,318.27951 C 93.065943,316.12405 31.931098,303.30417 9.8107509,289.27586 L 1.0033898,283.6904 v -47.38741 c 0,-29.12212 0.7220534,-47.83365 1.8732938,-48.54516 1.0303117,-0.63677 8.5048884,0.97977 16.6101684,3.59232 35.756312,11.52517 63.375045,14.49768 146.232358,15.73847 91.90572,1.37628 136.71582,-2.1459 176.05251,-13.83816 27.35555,-8.13103 24.57318,-11.98571 25.16783,34.86745 0.28184,22.20655 -0.16212,44.39898 -0.98653,49.31651 -1.30583,7.78895 -2.47251,9.49685 -9.0548,13.25531 -10.5799,6.04107 -32.41309,12.74075 -59.9734,18.40327 -32.00173,6.57505 -49.04213,8.09512 -95.51981,8.52074 -21.8537,0.20012 -40.2198,0.53212 -40.81357,0.73777 -0.59377,0.20565 -6.205,0.17325 -12.46941,-0.072 z m 95.55778,-48.00019 c 24.09524,-2.13276 28.78121,-3.79927 28.78121,-10.23571 0,-8.66975 -2.55512,-9.07443 -42.07455,-6.66377 -34.3877,2.09763 -80.58534,1.57666 -116.47058,-1.31341 -12.71895,-1.02434 -15.642273,-0.72095 -17.771304,1.84438 -3.705294,4.4646 -1.159397,12.30461 4.453124,13.71326 16.62922,4.17367 106.98398,5.85043 143.0821,2.65525 z M 78.454237,260.44746 c 3.563015,-3.56302 2.684524,-8.76078 -1.99322,-11.7933 -6.851027,-4.44143 -36.938128,-9.98465 -40.857985,-7.52764 -5.100727,3.19719 -5.102935,9.54746 -0.0046,12.88809 9.892329,6.48166 38.511131,10.77748 42.855761,6.43285 z"
     id="path4009"
     inkscape:connector-curvature="0" />
  <path
     style="fill:#ff8080;stroke-width:1.89830506"
     d="M 141.47797,445.59881 C 129.49326,444.95611 91.540534,441.1506 84.623693,439.89805 49.690211,433.57206 16.53055,423.37866 8.1572243,416.39198 L 1.9525424,411.21481 1.45645,362.12266 c -0.2728508,-27.00068 0.2670708,-50.26089 1.199826,-51.68936 1.3870529,-2.1242 4.4160622,-1.55758 16.631685,3.11117 66.013372,25.22998 198.311339,30.54098 289.771979,11.63267 20.0951,-4.1544 46.11499,-12.7819 53.86589,-17.86048 l 4.45044,-2.91605 -0.028,50.82342 c -0.0203,36.91386 -0.6791,52.11024 -2.40703,55.52524 -7.2495,14.32746 -65.81868,29.66489 -130.44634,34.15979 -25.25902,1.75678 -67.30558,2.06857 -93.01695,0.68975 z m 109.83568,-47.99943 c 17.34892,-2.0486 21.14737,-3.97063 21.14737,-10.70062 0,-7.34798 -4.73645,-8.29782 -31.44772,-6.3065 -28.11164,2.09573 -98.86405,1.80952 -121.36584,-0.49094 -18.82229,-1.92429 -23.326174,-0.99704 -24.861037,5.11834 -2.398761,9.55743 1.988835,11.02223 42.377937,14.14793 23.27722,1.80141 93.07569,0.72021 114.14929,-1.76821 z M 77.749152,388.82712 c 3.585095,-3.5851 3.872888,-9.1254 0.61017,-11.74636 -1.305085,-1.04838 -10.64918,-3.77385 -20.764658,-6.0566 -20.395659,-4.60266 -26.218393,-3.60666 -26.218393,4.48477 0,6.41931 3.34861,8.38317 21.140598,12.39832 19.969845,4.50663 21.586582,4.56557 25.232283,0.91987 z"
     id="path4011"
     inkscape:connector-curvature="0" />
  <path
     style="fill:#aa0000;stroke-width:1.89830506"
     d="M 135.78305,62.16086 C 85.819929,59.575661 42.100023,53.25603 20.872066,45.550698 5.9009706,40.116481 1.0033898,36.07953 1.0033898,29.173449 c 0,-4.360701 1.4198893,-5.777756 9.0996812,-9.081515 12.44711,-5.354602 41.154584,-10.9544113 76.324048,-14.8881125 41.684891,-4.66245073 153.840541,-4.66245073 195.525421,0 35.16946,3.9337012 63.87694,9.5335105 76.32405,14.8881125 7.7784,3.346181 9.09968,4.68877 9.09968,9.246466 0,15.478504 -46.66275,27.45546 -125.28813,32.15778 -28.50981,1.705076 -79.97829,2.026887 -106.30509,0.66468 z"
     id="path4013"
     inkscape:connector-curvature="0" />
  <path
     style="fill:#aa0000;stroke-width:1.89830506"
     d="m 112.05496,189.01219 c -0.70412,-0.70813 -43.865821,-5.94389 -54.102418,-6.56294 -3.654237,-0.22099 -7.071186,-0.87226 -7.59322,-1.44729 -1.637451,-1.80365 -21.137914,-5.66407 -22.951021,-4.54351 -0.949821,0.58702 -1.726945,0.0713 -1.726945,-1.14613 0,-1.21738 -1.226167,-1.74291 -2.724812,-1.16782 -1.498647,0.57508 -2.993563,0.31761 -3.322034,-0.57217 -0.328473,-0.88977 -2.305696,-1.90958 -4.393832,-2.26624 C 3.0271623,169.22 1.3944779,160.91997 1.1635741,99.742665 1.0137244,60.040394 1.2177164,57.389196 4.3254237,58.64947 c 10.7129613,4.344445 24.0087913,8.428745 24.8147733,7.622763 0.515678,-0.51568 2.104636,0.03096 3.531016,1.214746 1.426379,1.18379 3.134854,1.610909 3.79661,0.949153 0.661755,-0.661756 2.191085,-0.383315 3.398509,0.618758 1.207425,1.002074 6.838565,2.369997 12.513645,3.039829 5.675081,0.669833 12.88104,1.55349 16.013243,1.963683 11.359067,1.48758 23.081361,2.752453 37.9661,4.09666 19.263,1.739597 135.50134,1.763406 155.66102,0.03189 36.18059,-3.107565 62.83078,-6.606073 66.35482,-8.710738 0.99685,-0.595348 4.20152,-1.343996 7.12149,-1.663661 4.65491,-0.509598 17.83258,-4.736384 28.86602,-9.258886 3.49104,-1.43095 3.5825,-0.655673 2.3815,20.189293 -0.68692,11.922561 -1.25282,35.82856 -1.25757,53.12444 l -0.009,31.44705 -7.11865,3.94569 c -3.91525,2.17013 -12.24407,5.50755 -18.50847,7.41648 -6.26441,1.90894 -11.81695,3.92119 -12.33899,4.47166 -0.52203,0.55048 -3.08474,1.07463 -5.69491,1.16479 -2.61017,0.0901 -14.56949,1.69424 -26.57627,3.56464 -17.189,2.67768 -38.91736,3.65185 -102.19565,4.58185 -44.20082,0.64961 -80.64636,0.8983 -80.99007,0.55263 z m 133.82979,-46.65383 c 6.78644,-0.67236 13.97008,-1.24325 15.96366,-1.26865 6.5995,-0.0841 10.61261,-3.55609 10.61261,-9.18169 0,-7.86353 -4.08273,-10.35755 -14.72719,-8.99642 -19.92362,2.54767 -90.61953,3.36293 -122.55875,1.41335 -36.513583,-2.22882 -41.154741,-1.51646 -41.154741,6.31674 0,7.2132 7.861291,10.86697 25.195151,11.71018 8.39532,0.40839 15.70865,1.18696 16.25184,1.73015 1.30272,1.30272 94.56545,-0.15315 110.41742,-1.72366 z M 78.493234,133.04529 c 3.297838,-4.07629 1.478413,-10.75362 -3.655298,-13.41501 -10.611845,-5.50133 -37.150894,-9.66549 -41.088783,-6.4471 -3.872978,3.16533 -2.80069,10.59921 1.898305,13.16044 12.582195,6.85804 39.33401,11.04239 42.845776,6.70167 z"
     id="path4015"
     inkscape:connector-curvature="0" />
  <path
     style="fill:#aa0000;stroke-width:1.89830506"
     d="m 130.08814,316.67941 c -3.65424,-0.43127 -14.59036,-1.70964 -24.3025,-2.84081 C 67.359766,309.36314 27.02121,298.6942 9.3333251,288.32841 L 0.5125747,283.1591 1.3686638,236.89655 c 0.4708489,-25.4444 1.4384278,-46.84488 2.1501752,-47.55663 0.7117475,-0.71175 9.619992,0.98263 19.796097,3.76529 31.18749,8.52821 34.976256,9.13838 75.451166,12.15116 22.201098,1.65256 156.409458,1.70511 177.529698,0.0695 9.93964,-0.76975 22.32608,-2.27974 27.52543,-3.35555 5.19934,-1.07581 11.16182,-2.31501 13.24996,-2.75378 2.08813,-0.43878 6.45606,-1.22257 9.7065,-1.74176 3.25043,-0.51919 12.50281,-2.85963 20.56083,-5.20098 12.46938,-3.62314 14.90633,-3.85345 16.36613,-1.54677 0.94334,1.49063 1.72827,22.61008 1.74425,46.93212 0.0287,43.70158 -0.0226,44.27353 -4.3609,48.61184 -8.45611,8.45611 -50.34967,20.83801 -89.71057,26.51449 -20.16264,2.90778 -125.13266,5.80074 -141.28929,3.89391 z m 121.49152,-46.91407 c 16.27725,-2.06527 20.88136,-4.30046 20.88136,-10.13746 0,-6.22117 -5.39307,-7.95547 -22.78475,-7.32709 -23.14983,0.83642 -109.45359,0.73888 -130.6378,-0.14765 -16.14137,-0.6755 -20.123845,-0.2881 -22.611475,2.19953 -2.298903,2.2989 -2.595826,4.2244 -1.244282,8.06897 1.933274,5.49935 3.105378,5.84218 24.304727,7.10891 7.22047,0.43145 13.5362,1.19252 14.03495,1.69128 1.22134,1.22134 107.26305,-0.0869 118.05727,-1.45649 z M 77.06039,260.76033 c 5.091383,-2.72483 4.588702,-8.38732 -1.073949,-12.09763 -2.61017,-1.71025 -4.745763,-2.55814 -4.745763,-1.88419 0,0.67394 -1.067797,0.3843 -2.372881,-0.64364 -5.907497,-4.65302 -32.134239,-7.56798 -35.037306,-3.89421 -3.23467,4.0934 -2.075421,9.25561 2.795142,12.44692 10.075805,6.60193 33.010047,10.04633 40.434757,6.07275 z"
     id="path4017"
     inkscape:connector-curvature="0" />
  <path
     style="fill:#aa0000;stroke-width:1.89830506"
     d="M 107.72186,442.0602 C 68.842792,437.59693 27.827587,427.0746 10.969492,417.23867 l -8.0677971,-4.70719 v -51.17421 c 0,-56.68446 -0.9032033,-53.33376 13.0494681,-48.41097 4.307538,1.51979 7.831888,2.26943 7.831888,1.66587 0,-0.60356 1.134841,-0.15555 2.521868,0.99558 1.387029,1.15113 4.1633,2.34824 6.169491,2.66024 2.006194,0.312 4.501861,1.08278 5.545929,1.71285 1.907432,1.15108 11.096814,3.38407 19.932203,4.84345 6.78617,1.1209 9.808315,1.73552 15.186441,3.0885 7.516231,1.89086 30.073797,4.63715 53.152547,6.47112 19.61586,1.55878 100.31031,1.57904 117.69491,0.0295 17.59093,-1.56788 31.05491,-3.28792 47.45763,-6.06277 3.65424,-0.61819 8.52377,-1.12781 10.82117,-1.13248 2.29741,-0.005 4.7056,-0.8636 5.35151,-1.90872 0.64592,-1.04512 1.84924,-1.48315 2.67403,-0.9734 3.98739,2.46435 53.28888,-14.46211 53.28888,-18.29543 0,-0.97711 0.97977,-1.17104 2.17726,-0.43095 1.59262,0.9843 1.89863,15.15108 1.13963,52.76066 l -1.03761,51.41504 -6.13616,5.12268 c -12.79247,10.67964 -53.33201,21.39661 -102.4482,27.08305 -31.49981,3.6469 -118.03856,3.68688 -149.55272,0.0691 z m 132.46797,-43.40876 c 28.08998,-2.02874 32.27119,-3.56622 32.27119,-11.86646 0,-5.77449 -7.47921,-8.9247 -18.0339,-7.59578 -11.00172,1.3852 -120.80781,1.39668 -137.76845,0.0144 -16.4699,-1.34231 -22.638331,0.75884 -22.638331,7.71127 0,6.49177 8.995361,10.00389 31.349311,12.23991 17.79212,1.77972 87.43597,1.4744 114.82018,-0.50337 z M 79.420664,386.53467 c 2.096344,-4.60097 0.01462,-10.82633 -3.641112,-10.88916 -0.93028,-0.0159 -2.816046,-0.74221 -4.190594,-1.61382 -1.374547,-0.87161 -3.004425,-1.0795 -3.621949,-0.46198 -0.617524,0.61753 -2.166258,0.25676 -3.441633,-0.80171 -1.275374,-1.05847 -6.052277,-2.39362 -10.615339,-2.967 -4.563062,-0.57339 -10.004952,-1.29135 -12.093088,-1.59547 -6.188317,-0.90128 -10.429654,2.34262 -9.991108,7.64149 0.552378,6.67425 3.358182,8.47061 19.080164,12.21568 18.957844,4.51588 25.931131,4.1422 28.514659,-1.52803 z"
     id="path4019"
     inkscape:connector-curvature="0" />
</svg>
