<svg xmlns="http://www.w3.org/2000/svg" viewBox="0 0 368 448"><defs><style>.cls-1{fill:#fafafa;}</style></defs><title>database</title><g id="Layer_2" data-name="Layer 2"><g id="Layer_1-2" data-name="Layer 1"><g id="Database-3"><path class="cls-1" d="M184,208c-58.4,0-147.84-3.84-184-25.52V280c0,16.32,71.68,40,184,40s184-23.68,184-40V182.48C331.84,204.16,242.4,208,184,208ZM71.84,263a8.7,8.7,0,0,1-1.44-.16c-11.68-2.08-22.56-4.56-32.32-7.28a8,8,0,0,1-5.6-9.83h0a8.12,8.12,0,0,1,9.92-5.6c9.28,2.64,19.6,5,30.8,7A8,8,0,0,1,71.84,263Zm193.28,4.64A730.41,730.41,0,0,1,184,272a713.44,713.44,0,0,1-81.36-4.48,8,8,0,0,1,.54-16,7.1,7.1,0,0,1,1.3.15A699.47,699.47,0,0,0,184,256a695.27,695.27,0,0,0,79.28-4.32,7.91,7.91,0,0,1,8.86,6.84c0,.07,0,.13,0,.2A8.06,8.06,0,0,1,265.12,267.6Z"/><path class="cls-1" d="M184,80C125.6,80,36.16,76.16,0,54.48V160c0,13.28,57.12,32,184,32s184-18.72,184-32V54.48C331.84,76.16,242.4,80,184,80ZM71.84,135a8.7,8.7,0,0,1-1.44-.16c-11.68-2.08-22.56-4.56-32.32-7.28a8,8,0,0,1-5.6-9.83h0a8.12,8.12,0,0,1,9.92-5.6c9.28,2.64,19.6,5,30.8,7A8,8,0,0,1,71.84,135Zm193.28,4.64A730.41,730.41,0,0,1,184,144a713.44,713.44,0,0,1-81.36-4.48,8,8,0,0,1,.54-16,7.1,7.1,0,0,1,1.3.15A699.47,699.47,0,0,0,184,128a695.27,695.27,0,0,0,79.28-4.32,8,8,0,0,1,8.88,7v0A8.06,8.06,0,0,1,265.12,139.6Z"/><path class="cls-1" d="M184,336c-75.52,0-151.76-11.12-184-32.64V408c0,16.32,71.68,40,184,40s184-23.68,184-40V303.36C335.76,324.88,259.52,336,184,336ZM71.84,391a8.7,8.7,0,0,1-1.44-.16c-11.68-2.08-22.56-4.56-32.32-7.28a8,8,0,0,1-5.6-9.83h0a8.12,8.12,0,0,1,9.92-5.6c9.28,2.64,19.6,5,30.8,7A8,8,0,0,1,71.84,391Zm193.28,4.64A730.41,730.41,0,0,1,184,400a713.44,713.44,0,0,1-81.36-4.48,8,8,0,0,1,.54-16,7.1,7.1,0,0,1,1.3.15A699.47,699.47,0,0,0,184,384a695.27,695.27,0,0,0,79.28-4.32,7.91,7.91,0,0,1,8.86,6.84c0,.07,0,.13,0,.2A8.06,8.06,0,0,1,265.12,395.6Z"/><path class="cls-1" d="M0,24.61V32C0,45.29,57.09,64,184,64S368,45.29,368,32V24.61C362.07,16.12,301.43,0,184,0S5.93,16.12,0,24.61Z"/></g></g></g></svg>