<svg xmlns="http://www.w3.org/2000/svg" viewBox="0 0 512 371.81"><defs><style>.cls-1{fill:#fafafa;}</style></defs><title>gauge</title><g id="Layer_2" data-name="Layer 2"><g id="Layer_1-2" data-name="Layer 1"><path class="cls-1" d="M280.34,201.45H246.57a7.51,7.51,0,0,0-6.6,3.93l-26.92,49.74a7.5,7.5,0,0,0,6.59,11.07h0l19.37,0-14,34.08c-3.13,7.61,6.55,13.85,12.24,8.14l60.44-60.63A7.49,7.49,0,0,0,292.36,235H272.19l14.42-21.88A7.51,7.51,0,0,0,280.34,201.45Zm-6,48.51-21.1,21.17,4-9.63a7.51,7.51,0,0,0-6.94-10.36l-18,0L251,216.45h15.38L252,238.33A7.51,7.51,0,0,0,258.27,250Z"/><path class="cls-1" d="M263.5,83.56V58.1a7.5,7.5,0,0,0-15,0V83.56a7.5,7.5,0,0,0,15,0Z"/><path class="cls-1" d="M401.26,110.76a7.5,7.5,0,0,0-10.61,0l-18,18a7.5,7.5,0,0,0,10.61,10.61l18-18A7.5,7.5,0,0,0,401.26,110.76Z"/><path class="cls-1" d="M134.05,141.57a7.51,7.51,0,0,0,5.3-12.81l-18-18a7.5,7.5,0,1,0-10.61,10.61l18,18A7.48,7.48,0,0,0,134.05,141.57Z"/><path class="cls-1" d="M371.09,200.27a7.5,7.5,0,1,0,13.49-6.55,143.21,143.21,0,0,0-49.7-56.79L350.15,98c3.12-8-7.5-14.12-12.85-7.42L310.64,124a143,143,0,0,0-183.22,69.71,7.5,7.5,0,1,0,13.49,6.55,128,128,0,0,1,159.94-64l-28.17,35.32a86,86,0,0,0-89.79,39,7.5,7.5,0,1,0,12.73,7.92A71.07,71.07,0,1,1,184.93,256a71.61,71.61,0,0,1,1.52-14.66,7.5,7.5,0,0,0-14.68-3.07,86.08,86.08,0,1,0,141.55-46.4l15.94-40.65A128.24,128.24,0,0,1,371.09,200.27ZM315,142.59c.43.22.86.44,1.28.67l-15.42,39.31a84.37,84.37,0,0,0-12.66-6.39Z"/><path class="cls-1" d="M485.94,143.39a7.5,7.5,0,0,0-13.47,6.6,238.38,238.38,0,0,1,24.42,98.53H364.29a7.5,7.5,0,0,0-7.5,7.5,100.79,100.79,0,0,1-201.58,0,7.5,7.5,0,0,0-7.5-7.5H15.11A239.29,239.29,0,0,1,85.59,85.61c108-108,289.18-90,373,39.9a7.5,7.5,0,1,0,12.6-8.13C382.28-20.44,189.89-39.91,75,75A254.33,254.33,0,0,0,0,256a7.5,7.5,0,0,0,7.5,7.5h133a115.79,115.79,0,0,0,231.1,0h133A7.5,7.5,0,0,0,512,256,253.54,253.54,0,0,0,485.94,143.39Z"/></g></g></svg>