<svg xmlns="http://www.w3.org/2000/svg" viewBox="0 0 384 512"><defs><style>.cls-1{fill:#fafafa;}</style></defs><title>humidity</title><g id="Layer_2" data-name="Layer 2"><g id="Capa_1" data-name="Capa 1"><path class="cls-1" d="M280.86,112.83c-26.17-33.41-53.24-67.9-75.07-105a16,16,0,0,0-27.55,0c-21.82,37-48.9,71.55-75.07,104.93C50.11,180.45,0,244.35,0,320,0,425.89,86.11,512,192,512s192-86.11,192-192C384,244.38,333.92,180.48,280.86,112.83ZM192,480c-88.22,0-160-71.78-160-160,0-64.61,46.78-124.26,96.35-187.46C150,105,172.19,76.64,192,46.3c19.81,30.34,42,58.69,63.65,86.28C305.22,195.74,352,255.42,352,320,352,408.22,280.22,480,192,480Z"/><path class="cls-1" d="M144,192a48,48,0,1,0,48,48A48.06,48.06,0,0,0,144,192Zm0,64a16,16,0,1,1,16-16A16,16,0,0,1,144,256Z"/><path class="cls-1" d="M240,352a48,48,0,1,0,48,48A48.06,48.06,0,0,0,240,352Zm0,64a16,16,0,1,1,16-16A16,16,0,0,1,240,416Z"/><path class="cls-1" d="M283.3,228.7a16,16,0,0,0-22.63,0l-160,160a16,16,0,0,0,22.63,22.63l160-160A16,16,0,0,0,283.3,228.7Z"/></g></g></svg>