<svg xmlns="http://www.w3.org/2000/svg" viewBox="0 0 51.91 50.76"><defs><style>.cls-1{fill:#fafafa;}</style></defs><title>power-cord</title><g id="Layer_2" data-name="Layer 2"><g id="Capa_1" data-name="Capa 1"><path class="cls-1" d="M21.37,10.13h-.71a1.44,1.44,0,0,0-1.49,1.37v5.79h3.69V11.5A1.44,1.44,0,0,0,21.37,10.13Z"/><path class="cls-1" d="M31.25,10.13h-.7a1.43,1.43,0,0,0-1.49,1.37v5.79h3.68V11.5A1.44,1.44,0,0,0,31.25,10.13Z"/><path class="cls-1" d="M26,0a26,26,0,0,0-8.07,50.63,2.35,2.35,0,0,0,.77.13,2.5,2.5,0,0,0,.78-4.88,21.09,21.09,0,0,1-8.34-5.14A21,21,0,1,1,46.92,26a20.78,20.78,0,0,1-6.14,14.81c-1.52,1.36-5.28,4.11-7.55,4.11a3.43,3.43,0,0,1-2.73-1.15c-1.79-2-2.19-6-2.17-8.84a8.2,8.2,0,0,0,7.79-8.19V18.92H15.79V26.7a8.21,8.21,0,0,0,7.54,8.18c0,3.35.44,8.84,3.44,12.18a8.41,8.41,0,0,0,6.46,2.82c4.84,0,10.34-4.89,11-5.44l.08-.08A26,26,0,0,0,26,0Z"/></g></g></svg>