<svg xmlns="http://www.w3.org/2000/svg" viewBox="0 0 401.72 512"><defs><style>.cls-1{fill:#fafafa;}</style></defs><title>termometer</title><g id="Layer_2" data-name="Layer 2"><g id="termometerAll"><path class="cls-1" d="M394.22,167.44H350.71a7.5,7.5,0,0,0,0,15h43.51a7.5,7.5,0,0,0,0-15Z"/><path class="cls-1" d="M350.71,121.65h19.76a7.5,7.5,0,0,0,0-15H350.71a7.5,7.5,0,0,0,0,15Z"/><path class="cls-1" d="M350.71,60.86h26.76a7.5,7.5,0,0,0,0-15H350.71a7.5,7.5,0,0,0,0,15Z"/><path class="cls-1" d="M377.47,289H350.71a7.5,7.5,0,0,0,0,15h26.76a7.5,7.5,0,0,0,0-15Z"/><path class="cls-1" d="M350.71,243.22h19.76a7.5,7.5,0,0,0,0-15H350.71a7.5,7.5,0,0,0,0,15Z"/><path class="cls-1" d="M127.11,162.81c12.41,6.62,13.15,8.12,16.45,8.12,7.72,0,10.38-10.29,3.67-14l-12.8-7.17,9.42-3.85A7.51,7.51,0,0,0,138.16,132l-20.44,8.38-26.83-15,26.83-15c21,8.42,20.7,8.94,23.28,8.94,8.2,0,10.43-11.34,2.85-14.44L134.44,101l12.79-7.16a7.5,7.5,0,1,0-7.32-13.09l-12.8,7.16,1.63-10a7.5,7.5,0,0,0-14.81-2.4l-3.54,21.81L83,112.54V81.19l17.29-13.74A7.5,7.5,0,0,0,91,55.7L83,62V47.36a7.5,7.5,0,0,0-15,0V62l-8-6.33a7.5,7.5,0,0,0-9.33,11.75L68,81.2v31.34L40.68,97.23,37.14,75.42a7.5,7.5,0,0,0-14.81,2.4l1.64,10L11.16,80.7A7.5,7.5,0,0,0,3.84,93.79L16.64,101l-9.42,3.86a7.5,7.5,0,0,0,5.69,13.88l20.45-8.37,26.82,15-26.82,15L12.91,132a7.51,7.51,0,0,0-5.69,13.89l9.42,3.85-12.8,7.17c-6.71,3.75-4,14,3.67,14,3.3,0,4.05-1.5,16.46-8.12l-1.64,10a7.5,7.5,0,0,0,14.81,2.41l3.54-21.81L68,138.13v31.35l-17.3,13.75A7.5,7.5,0,0,0,60.07,195l8-6.33v14.67a7.5,7.5,0,0,0,15,0V188.64c6.92,5,8.41,8,12.62,8a7.51,7.51,0,0,0,4.67-13.37L83,169.48V138.13l27.35,15.32,3.54,21.81a7.5,7.5,0,0,0,14.81-2.41Z"/><path class="cls-1" d="M318.15,309.8v-242a67.84,67.84,0,1,0-135.68,0v242a112.48,112.48,0,1,0,135.68,0ZM250.31,497a97.48,97.48,0,0,1-56-177.25,7.51,7.51,0,0,0,3.18-6.14V67.84a52.84,52.84,0,1,1,105.68,0V313.61a7.53,7.53,0,0,0,3.18,6.14,97.48,97.48,0,0,1-56,177.25Z"/><path class="cls-1" d="M283.14,324.67V67.84a32.83,32.83,0,1,0-65.66,0V91.06a7.5,7.5,0,0,0,15,0V67.84a17.83,17.83,0,1,1,35.66,0V290.09H232.48v-169a7.5,7.5,0,0,0-15,0V324.67a80,80,0,1,0,65.66,0Zm-32.83,138a65,65,0,0,1-22.71-125.9,7.49,7.49,0,0,0,4.88-7v-24.6h35.66v24.6a7.51,7.51,0,0,0,4.88,7,65,65,0,0,1-22.71,125.9Z"/></g></g></svg>