<?xml version="1.0" encoding="UTF-8" standalone="no"?>
<svg
   xmlns:dc="http://purl.org/dc/elements/1.1/"
   xmlns:cc="http://creativecommons.org/ns#"
   xmlns:rdf="http://www.w3.org/1999/02/22-rdf-syntax-ns#"
   xmlns:svg="http://www.w3.org/2000/svg"
   xmlns="http://www.w3.org/2000/svg"
   xmlns:sodipodi="http://sodipodi.sourceforge.net/DTD/sodipodi-0.dtd"
   xmlns:inkscape="http://www.inkscape.org/namespaces/inkscape"
   viewBox="0 0 401.72 401.72"
   version="1.1"
   id="svg4333"
   sodipodi:docname="termometer.svg"
   width="401.72"
   height="401.72"
   inkscape:version="0.92.4 (f8dce91, 2019-08-02)">
  <metadata
     id="metadata4337">
    <rdf:RDF>
      <cc:Work
         rdf:about="">
        <dc:format>image/svg+xml</dc:format>
        <dc:type
           rdf:resource="http://purl.org/dc/dcmitype/StillImage" />
        <dc:title>termometer</dc:title>
      </cc:Work>
    </rdf:RDF>
  </metadata>
  <sodipodi:namedview
     pagecolor="#ffffff"
     bordercolor="#666666"
     borderopacity="1"
     objecttolerance="10"
     gridtolerance="10"
     guidetolerance="10"
     inkscape:pageopacity="0"
     inkscape:pageshadow="2"
     inkscape:window-width="1299"
     inkscape:window-height="713"
     id="namedview4335"
     showgrid="false"
     inkscape:zoom="0.4609375"
     inkscape:cx="200.86"
     inkscape:cy="256"
     inkscape:window-x="67"
     inkscape:window-y="27"
     inkscape:window-maximized="1"
     inkscape:current-layer="svg4333" />
  <defs
     id="defs4311">
    <style
       id="style4309">.cls-1{fill:#fafafa;}</style>
  </defs>
  <title
     id="title4313">termometer</title>
  <g
     id="Layer_2"
     data-name="Layer 2"
     transform="matrix(1,0,0,0.78450482,0,0.0533)">
    <g
       id="termometerAll">
      <path
         class="cls-1"
         d="m 394.22,167.44 h -43.51 a 7.5,7.5 0 0 0 0,15 h 43.51 a 7.5,7.5 0 0 0 0,-15 z"
         id="path4315"
         inkscape:connector-curvature="0"
         style="fill:#fafafa" />
      <path
         class="cls-1"
         d="m 350.71,121.65 h 19.76 a 7.5,7.5 0 0 0 0,-15 h -19.76 a 7.5,7.5 0 0 0 0,15 z"
         id="path4317"
         inkscape:connector-curvature="0"
         style="fill:#fafafa" />
      <path
         class="cls-1"
         d="m 350.71,60.86 h 26.76 a 7.5,7.5 0 0 0 0,-15 h -26.76 a 7.5,7.5 0 0 0 0,15 z"
         id="path4319"
         inkscape:connector-curvature="0"
         style="fill:#fafafa" />
      <path
         class="cls-1"
         d="m 377.47,289 h -26.76 a 7.5,7.5 0 0 0 0,15 h 26.76 a 7.5,7.5 0 0 0 0,-15 z"
         id="path4321"
         inkscape:connector-curvature="0"
         style="fill:#fafafa" />
      <path
         class="cls-1"
         d="m 350.71,243.22 h 19.76 a 7.5,7.5 0 0 0 0,-15 h -19.76 a 7.5,7.5 0 0 0 0,15 z"
         id="path4323"
         inkscape:connector-curvature="0"
         style="fill:#fafafa" />
      <path
         class="cls-1"
         d="m 127.11,162.81 c 12.41,6.62 13.15,8.12 16.45,8.12 7.72,0 10.38,-10.29 3.67,-14 l -12.8,-7.17 9.42,-3.85 A 7.5143895,7.5143895 0 0 0 138.16,132 l -20.44,8.38 -26.83,-15 26.83,-15 c 21,8.42 20.7,8.94 23.28,8.94 8.2,0 10.43,-11.34 2.85,-14.44 l -9.41,-3.88 12.79,-7.16 a 7.5,7.5 0 1 0 -7.32,-13.09 l -12.8,7.16 1.63,-10 a 7.5016015,7.5016015 0 0 0 -14.81,-2.4 L 110.39,97.32 83,112.54 V 81.19 L 100.29,67.45 A 7.5,7.5 0 0 0 91,55.7 L 83,62 V 47.36 a 7.5,7.5 0 0 0 -15,0 V 62 L 60,55.67 A 7.5018564,7.5018564 0 0 0 50.67,67.42 L 68,81.2 v 31.34 L 40.68,97.23 37.14,75.42 a 7.5016015,7.5016015 0 0 0 -14.81,2.4 l 1.64,10 L 11.16,80.7 A 7.5,7.5 0 0 0 3.84,93.79 l 12.8,7.21 -9.42,3.86 a 7.5005083,7.5005083 0 0 0 5.69,13.88 l 20.45,-8.37 26.82,15 -26.82,15 L 12.91,132 a 7.51,7.51 0 0 0 -5.69,13.89 l 9.42,3.85 -12.8,7.17 c -6.71,3.75 -4,14 3.67,14 3.3,0 4.05,-1.5 16.46,-8.12 l -1.64,10 a 7.5024029,7.5024029 0 0 0 14.81,2.41 L 40.68,153.39 68,138.13 v 31.35 L 50.7,183.23 A 7.5221307,7.5221307 0 0 0 60.07,195 l 8,-6.33 v 14.67 a 7.5,7.5 0 0 0 15,0 v -14.7 c 6.92,5 8.41,8 12.62,8 a 7.51,7.51 0 0 0 4.67,-13.37 L 83,169.48 v -31.35 l 27.35,15.32 3.54,21.81 a 7.5024029,7.5024029 0 0 0 14.81,-2.41 z"
         id="path4325"
         inkscape:connector-curvature="0"
         style="fill:#fafafa" />
      <path
         class="cls-1"
         d="m 318.15,309.8 v -242 a 67.84,67.84 0 1 0 -135.68,0 v 242 a 112.48,112.48 0 1 0 135.68,0 z M 250.31,497 a 97.48,97.48 0 0 1 -56,-177.25 7.51,7.51 0 0 0 3.18,-6.14 V 67.84 a 52.84,52.84 0 1 1 105.68,0 v 245.77 a 7.53,7.53 0 0 0 3.18,6.14 97.48,97.48 0 0 1 -56,177.25 z"
         id="path4327"
         inkscape:connector-curvature="0"
         style="fill:#fafafa" />
      <path
         class="cls-1"
         d="M 283.14,324.67 V 67.84 a 32.83,32.83 0 1 0 -65.66,0 v 23.22 a 7.5,7.5 0 0 0 15,0 V 67.84 a 17.83,17.83 0 1 1 35.66,0 v 222.25 h -35.66 v -169 a 7.5,7.5 0 0 0 -15,0 v 203.58 a 80,80 0 1 0 65.66,0 z m -32.83,138 a 65,65 0 0 1 -22.71,-125.9 7.49,7.49 0 0 0 4.88,-7 v -24.6 h 35.66 v 24.6 a 7.51,7.51 0 0 0 4.88,7 65,65 0 0 1 -22.71,125.9 z"
         id="path4329"
         inkscape:connector-curvature="0"
         style="fill:#fafafa" />
    </g>
  </g>
</svg>
